Coordinates
nRows=12
nColumns=24

# SIMM Motion File Header:
name Coordinates
datacolumns 24
datarows 12
otherdata 1
range 0.76266999999999996000 0.77366999999999997000
endheader
time	pelvis_tx	pelvis_ty	pelvis_tz	pelvis_tilt	pelvis_list	pelvis_rotation	hip_flexion_r	hip_adduction_r	hip_rotation_r	knee_angle_r	ankle_angle_r	subtalar_angle_r	mtp_angle_r	hip_flexion_l	hip_adduction_l	hip_rotation_l	knee_angle_l	ankle_angle_l	subtalar_angle_l	mtp_angle_l	lumbar_extension	lumbar_bending	lumbar_rotation
      0.76266999999999996000	      1.49455976091061780000	      0.69148361124238855000	     -0.22289934426400668000	      6.48813643676981930000	      2.62875418263270610000	     -1.35060782721615480000	     -5.50849997517625490000	     -1.39903884319119840000	     -4.03609364417029500000	    -13.55257992058748200000	      9.97148163582878770000	      0.00000000000014573633	     -0.00000000000032414570	     15.03899955996825400000	     -1.62937851932853350000	     -4.79853787370780970000	    -45.59566568002173900000	     -5.75964671889087310000	     -0.00000000000014036130	      0.00000000000057981675	    -24.37299191143409200000	     -1.03578469274371380000	      5.13231492308401370000
      0.76366999999999996000	      1.49551553067407440000	      0.69143458873572416000	     -0.22287032019618580000	      6.49926387695062860000	      2.61866275204848440000	     -1.34483271876517140000	     -5.64096588525805040000	     -1.39124290296812880000	     -4.05850245672565710000	    -13.49507050694833800000	     10.00842923293160100000	      0.00000000000014613091	     -0.00000000000032508895	     15.15599493741647800000	     -1.62465123337552630000	     -4.72770361809878100000	    -45.34802099471958300000	     -5.68984426771727670000	     -0.00000000000014086422	      0.00000000000058149056	    -24.40409715606421100000	     -1.02775970218959460000	      5.15466931499413490000
      0.76466999999999996000	      1.49647171352379190000	      0.69138150772970375000	     -0.22284596230389875000	      6.51047019940390380000	      2.60817621381722780000	     -1.33892404903369730000	     -5.77382968654605740000	     -1.38310338717045880000	     -4.08041869398936720000	    -13.43723809355710100000	     10.04565039876282600000	      0.00000000000014650911	     -0.00000000000032598935	     15.27071212252732100000	     -1.61947130082104600000	     -4.66044139335944060000	    -45.09496193107372600000	     -5.62258632783122270000	     -0.00000000000014135517	      0.00000000000058310163	    -24.43538380274842600000	     -1.01796022474542560000	      5.17634074526053210000
      0.76566999999999996000	      1.49742810114962730000	      0.69132605531570934000	     -0.22282430605583323000	      6.52169030925366220000	      2.59752992758499920000	     -1.33295265444035850000	     -5.90686386537399160000	     -1.37483666091724040000	     -4.10196111553258280000	    -13.37928553286921800000	     10.08312904416350600000	      0.00000000000014688287	     -0.00000000000032688741	     15.38419280454788800000	     -1.61402433632957320000	     -4.59550707051219560000	    -44.83862822856347200000	     -5.56162075342956190000	     -0.00000000000014184216	      0.00000000000058468090	    -24.46674619201844100000	     -1.00720869349230390000	      5.19761375774876110000
      0.76666999999999996000	      1.49838464804577680000	      0.69126875847329061000	     -0.22280475108660669000	      6.53292114263401920000	      2.58675939290757030000	     -1.32693247384334700000	     -6.04003056006631310000	     -1.36647099319859540000	     -4.12321279151541380000	    -13.32123952428394600000	     10.12080795145153700000	      0.00000000000014725317	     -0.00000000000032778365	     15.49671176194268800000	     -1.60836968033155080000	     -4.53238333802547190000	    -44.57974758471424800000	     -5.50554924107132580000	     -0.00000000000014232606	      0.00000000000058623542	    -24.49816749218851800000	     -0.99571667594332891000	      5.21857688974285950000
      0.76766999999999996000	      1.49934149945265150000	      0.69120943449580485000	     -0.22278735390113377000	      6.54420807178351180000	      2.57583545505797760000	     -1.32103332905427240000	     -6.17336753347499380000	     -1.35799801611788680000	     -4.14391715485209390000	    -13.26315164985043200000	     10.15863692447641700000	      0.00000000000014760879	     -0.00000000000032863793	     15.60795944859736100000	     -1.60254535320821940000	     -4.47160234233956810000	    -44.31804575690414800000	     -5.45144144247961290000	     -0.00000000000014278490	      0.00000000000058769734	    -24.52967397878288800000	     -0.98345914941032664000	      5.23938395422172750000
      0.76866999999999996000	      1.50029885837740170000	      0.69114673195987419000	     -0.22277355302191690000	      6.55558849388156430000	      2.56465584525477870000	     -1.31533591061175950000	     -6.30698830474427300000	     -1.34934619010040510000	     -4.16370933044518580000	    -13.20499399900318400000	     10.19671600706270800000	      0.00000000000014793996	     -0.00000000000032942229	     15.71708835068516100000	     -1.59643824087603960000	     -4.41472590798837050000	    -44.05164195582593600000	     -5.40060650016544220000	     -0.00000000000014320198	      0.00000000000058900492	    -24.56132244275107700000	     -0.96992577457061058000	      5.25993090617521110000
      0.76966999999999997000	      1.50125621730215200000	      0.69108402942394342000	     -0.22275975214270002000	      6.56696891597961670000	      2.55347623545157940000	     -1.30963849216924650000	     -6.44060907601355210000	     -1.34069436408292320000	     -4.18350150603827850000	    -13.14683634815593800000	     10.23479508964900100000	      0.00000000000014827112	     -0.00000000000033020665	     15.82621725277296100000	     -1.59033112854385950000	     -4.35784947363717290000	    -43.78523815474772400000	     -5.34977155785127150000	     -0.00000000000014361905	      0.00000000000059031250	    -24.59297090671926300000	     -0.95639239973089452000	      5.28047785812869460000
      0.77066999999999997000	      1.50221461626066440000	      0.69101664596357937000	     -0.22275061139855179000	      6.57855429064009640000	      2.54187872773100090000	     -1.30453043199453740000	     -6.57467152222160500000	     -1.33177063081969660000	     -4.20167549171124310000	    -13.08872258754115800000	     10.27303990974889700000	      0.00000000000014859191	     -0.00000000000033095718	     15.93197284786283200000	     -1.58394513923231290000	     -4.30694164100306410000	    -43.51240355848961600000	     -5.29357302147094980000	     -0.00000000000014400661	      0.00000000000059154974	    -24.62482489871709000000	     -0.94116489318352203000	      5.30102504516232910000
      0.77166999999999997000	      1.50317316379542860000	      0.69094859379972473000	     -0.22274213638798479000	      6.59016894423806670000	      2.53022152030793950000	     -1.29950656585808600000	     -6.70879706484948280000	     -1.32280805366422110000	     -4.21961830739561710000	    -13.03061509695958600000	     10.31130840663645300000	      0.00000000000014891121	     -0.00000000000033170289	     16.03724654195299900000	     -1.57751931035228510000	     -4.25688646575711080000	    -43.23865027720582100000	     -5.23660825736689260000	     -0.00000000000014438996	      0.00000000000059277694	    -24.65670825186201000000	     -0.92569536782077033000	      5.32157226577884220000
      0.77266999999999997000	      1.50413272915202610000	      0.69087654279181432000	     -0.22273766755684168000	      6.60194683360200150000	      2.51821896190522800000	     -1.29490040787115550000	     -6.84330371064871730000	     -1.31362669533224330000	     -4.23629060863991040000	    -12.97262644972897900000	     10.34970877830089700000	      0.00000000000014925851	     -0.00000000000033254855	     16.13961552434858100000	     -1.57083306946388900000	     -4.21197025541104430000	    -42.95938291638799500000	     -5.17494954119437620000	     -0.00000000000014476311	      0.00000000000059401561	    -24.68872670671062900000	     -0.90878857955433834000	      5.34207129411513120000
      0.77366999999999997000	      1.50509263378256790000	      0.69080315883588528000	     -0.22273453411883989000	      6.61377913488792580000	      2.50610128650930000000	     -1.29043348593406600000	     -6.97793739083840500000	     -1.30437240994143110000	     -4.25253940507084230000	    -12.91467741694869400000	     10.38815310822430300000	      0.00000000000014961513	     -0.00000000000033342753	     16.24101626951263100000	     -1.56406002457270320000	     -4.16876703336494540000	    -42.67827752905883200000	     -5.11172617433236810000	     -0.00000000000014513287	      0.00000000000059525810	    -24.72079019546048100000	     -0.89140270365334473000	      5.36255425835801080000
